<mxfile host="app.diagrams.net" modified="2022-05-12T02:35:16.688Z" agent="5.0 (Macintosh; Intel Mac OS X 10_15_7) AppleWebKit/537.36 (KHTML, like Gecko) Chrome/101.0.4951.64 Safari/537.36" etag="ZfjtLjrEjo7rrVgTUYmY" version="18.0.2" type="github">
  <diagram id="HPLt_HOUee2OMXKCT2vo" name="Page-1">
    <mxGraphModel dx="1298" dy="728" grid="1" gridSize="10" guides="1" tooltips="1" connect="1" arrows="1" fold="1" page="1" pageScale="1" pageWidth="850" pageHeight="1100" math="0" shadow="0">
      <root>
        <mxCell id="0" />
        <mxCell id="1" parent="0" />
        <mxCell id="UOxeesQy1HJUlwh9xV77-6" style="edgeStyle=orthogonalEdgeStyle;rounded=0;orthogonalLoop=1;jettySize=auto;html=1;entryX=0.5;entryY=0;entryDx=0;entryDy=0;" edge="1" parent="1" source="UOxeesQy1HJUlwh9xV77-1" target="UOxeesQy1HJUlwh9xV77-5">
          <mxGeometry relative="1" as="geometry" />
        </mxCell>
        <mxCell id="UOxeesQy1HJUlwh9xV77-17" value="Publish pool diff" style="edgeLabel;html=1;align=center;verticalAlign=middle;resizable=0;points=[];" vertex="1" connectable="0" parent="UOxeesQy1HJUlwh9xV77-6">
          <mxGeometry x="-0.0154" y="2" relative="1" as="geometry">
            <mxPoint x="43" as="offset" />
          </mxGeometry>
        </mxCell>
        <mxCell id="UOxeesQy1HJUlwh9xV77-13" style="edgeStyle=orthogonalEdgeStyle;rounded=0;orthogonalLoop=1;jettySize=auto;html=1;entryX=0.25;entryY=0;entryDx=0;entryDy=0;" edge="1" parent="1" source="UOxeesQy1HJUlwh9xV77-1" target="UOxeesQy1HJUlwh9xV77-3">
          <mxGeometry relative="1" as="geometry" />
        </mxCell>
        <mxCell id="UOxeesQy1HJUlwh9xV77-14" value="On init: Get all pools&amp;nbsp;" style="edgeLabel;html=1;align=center;verticalAlign=middle;resizable=0;points=[];" vertex="1" connectable="0" parent="UOxeesQy1HJUlwh9xV77-13">
          <mxGeometry x="-0.2117" y="-2" relative="1" as="geometry">
            <mxPoint x="102" y="-35" as="offset" />
          </mxGeometry>
        </mxCell>
        <mxCell id="UOxeesQy1HJUlwh9xV77-15" style="edgeStyle=orthogonalEdgeStyle;rounded=0;orthogonalLoop=1;jettySize=auto;html=1;exitX=1;exitY=0.5;exitDx=0;exitDy=0;entryX=0.75;entryY=0;entryDx=0;entryDy=0;" edge="1" parent="1" source="UOxeesQy1HJUlwh9xV77-1" target="UOxeesQy1HJUlwh9xV77-4">
          <mxGeometry relative="1" as="geometry" />
        </mxCell>
        <mxCell id="UOxeesQy1HJUlwh9xV77-1" value="Pool Service" style="rounded=0;whiteSpace=wrap;html=1;fillColor=#d5e8d4;strokeColor=#82b366;" vertex="1" parent="1">
          <mxGeometry x="375" y="120" width="120" height="60" as="geometry" />
        </mxCell>
        <mxCell id="UOxeesQy1HJUlwh9xV77-24" style="edgeStyle=orthogonalEdgeStyle;rounded=0;orthogonalLoop=1;jettySize=auto;html=1;exitX=0.5;exitY=1;exitDx=0;exitDy=0;entryX=0.5;entryY=0;entryDx=0;entryDy=0;" edge="1" parent="1" source="UOxeesQy1HJUlwh9xV77-3" target="UOxeesQy1HJUlwh9xV77-23">
          <mxGeometry relative="1" as="geometry" />
        </mxCell>
        <mxCell id="UOxeesQy1HJUlwh9xV77-3" value="Finding Route Service" style="rounded=0;whiteSpace=wrap;html=1;fillColor=#fff2cc;strokeColor=#d6b656;" vertex="1" parent="1">
          <mxGeometry x="120" y="560" width="120" height="60" as="geometry" />
        </mxCell>
        <mxCell id="UOxeesQy1HJUlwh9xV77-26" style="edgeStyle=orthogonalEdgeStyle;rounded=0;orthogonalLoop=1;jettySize=auto;html=1;exitX=0.5;exitY=1;exitDx=0;exitDy=0;entryX=0.5;entryY=0;entryDx=0;entryDy=0;" edge="1" parent="1" source="UOxeesQy1HJUlwh9xV77-4" target="UOxeesQy1HJUlwh9xV77-25">
          <mxGeometry relative="1" as="geometry" />
        </mxCell>
        <mxCell id="UOxeesQy1HJUlwh9xV77-4" value="Token/Price Service" style="rounded=0;whiteSpace=wrap;html=1;fillColor=#fff2cc;strokeColor=#d6b656;" vertex="1" parent="1">
          <mxGeometry x="630" y="560" width="120" height="60" as="geometry" />
        </mxCell>
        <mxCell id="UOxeesQy1HJUlwh9xV77-7" style="edgeStyle=orthogonalEdgeStyle;rounded=0;orthogonalLoop=1;jettySize=auto;html=1;exitX=0.5;exitY=1;exitDx=0;exitDy=0;entryX=0.5;entryY=0;entryDx=0;entryDy=0;" edge="1" parent="1" source="UOxeesQy1HJUlwh9xV77-5" target="UOxeesQy1HJUlwh9xV77-3">
          <mxGeometry relative="1" as="geometry" />
        </mxCell>
        <mxCell id="UOxeesQy1HJUlwh9xV77-18" value="Consume pool diff" style="edgeLabel;html=1;align=center;verticalAlign=middle;resizable=0;points=[];" vertex="1" connectable="0" parent="UOxeesQy1HJUlwh9xV77-7">
          <mxGeometry x="0.3438" y="2" relative="1" as="geometry">
            <mxPoint x="69" y="-17" as="offset" />
          </mxGeometry>
        </mxCell>
        <mxCell id="UOxeesQy1HJUlwh9xV77-8" style="edgeStyle=orthogonalEdgeStyle;rounded=0;orthogonalLoop=1;jettySize=auto;html=1;exitX=0.5;exitY=1;exitDx=0;exitDy=0;entryX=0.5;entryY=0;entryDx=0;entryDy=0;" edge="1" parent="1" source="UOxeesQy1HJUlwh9xV77-5" target="UOxeesQy1HJUlwh9xV77-4">
          <mxGeometry relative="1" as="geometry" />
        </mxCell>
        <mxCell id="UOxeesQy1HJUlwh9xV77-5" value="Pubsub" style="rounded=1;whiteSpace=wrap;html=1;" vertex="1" parent="1">
          <mxGeometry x="220" y="310" width="430" height="60" as="geometry" />
        </mxCell>
        <mxCell id="UOxeesQy1HJUlwh9xV77-9" value="Pool&lt;br&gt;diff" style="whiteSpace=wrap;html=1;aspect=fixed;" vertex="1" parent="1">
          <mxGeometry x="250" y="315" width="50" height="50" as="geometry" />
        </mxCell>
        <mxCell id="UOxeesQy1HJUlwh9xV77-10" value="Pool&lt;br&gt;diff" style="whiteSpace=wrap;html=1;aspect=fixed;" vertex="1" parent="1">
          <mxGeometry x="320" y="315" width="50" height="50" as="geometry" />
        </mxCell>
        <mxCell id="UOxeesQy1HJUlwh9xV77-11" value="Pool&lt;br&gt;diff" style="whiteSpace=wrap;html=1;aspect=fixed;" vertex="1" parent="1">
          <mxGeometry x="480" y="315" width="50" height="50" as="geometry" />
        </mxCell>
        <mxCell id="UOxeesQy1HJUlwh9xV77-12" value="Pool&lt;br&gt;diff" style="whiteSpace=wrap;html=1;aspect=fixed;" vertex="1" parent="1">
          <mxGeometry x="550" y="315" width="50" height="50" as="geometry" />
        </mxCell>
        <mxCell id="UOxeesQy1HJUlwh9xV77-16" value="&lt;span style=&quot;color: rgb(0, 0, 0); font-family: Helvetica; font-size: 11px; font-style: normal; font-variant-ligatures: normal; font-variant-caps: normal; font-weight: 400; letter-spacing: normal; orphans: 2; text-align: center; text-indent: 0px; text-transform: none; widows: 2; word-spacing: 0px; -webkit-text-stroke-width: 0px; background-color: rgb(255, 255, 255); text-decoration-thickness: initial; text-decoration-style: initial; text-decoration-color: initial; float: none; display: inline !important;&quot;&gt;On init: Get all pools&amp;nbsp;&lt;/span&gt;" style="text;whiteSpace=wrap;html=1;" vertex="1" parent="1">
          <mxGeometry x="560" y="126" width="150" height="30" as="geometry" />
        </mxCell>
        <mxCell id="UOxeesQy1HJUlwh9xV77-19" value="Consume pool diff" style="edgeLabel;html=1;align=center;verticalAlign=middle;resizable=0;points=[];" vertex="1" connectable="0" parent="1">
          <mxGeometry x="550" y="450" as="geometry" />
        </mxCell>
        <mxCell id="UOxeesQy1HJUlwh9xV77-20" value="" style="shape=image;verticalLabelPosition=bottom;labelBackgroundColor=default;verticalAlign=top;aspect=fixed;imageAspect=0;image=data:image/png,iVBORw0KGgoAAAANSUhEUgAAAVgAAACTCAMAAAD86vGxAAAA4VBMVEX///8kS1ogSVgOQFEzWGaksbYhSVkAPU8WRFS/yMvS2Nr19/gAOkwAr6wtUmGstbqQoKf2+fkANUhLZnHr7u/I0NMkRlbv8fLd4uSJmqFry8p30M8fQlN/0dHDzM9GZHC1wMRsgoszwb9cxsXn9vaYp615jZVbdX9TbXg9XWpheIKO19ZQw8Fbzcuk3d1y09EFuLQuZG+c3dsxyMZKwMA5sLAQoaJUr7ElcXkiPE84eoIkWGWz4uI5lps+h41DfoZqwMFSkJZEd4Ha6utT0M0eXWiE3Np3urw+o6YNVmIclJWS3PjqAAAR50lEQVR4nO1da2PiNhbFMtjCODzNy4RgTCA8kglNMp1tM9tO27Tb3f//g1Yy1gNbtiVsoMlwZubLALJ8fH3v1dWRVCpdcMEFF1xwwQUXXHA2bNxz9+BjYvzgj87dh4+IzYP/sH08dy8+Hp5813/w/QuzBWMzm90jk/WfH87dk4+FJ/fefcEm++xfmC0Qn15G9+79/b3/vH3eXpgtDBt3NkMmiwz2bfvsXyJYUXhyZ6P7R+xiP3/+/CP688Xq3gzO3av3j6f70QyZLApe//rpegezXXZUm7kd3R6jd+8XTzPXDUzW/7mnhei9HsDr6MIsj0/ubLzzBD9fE16N+pVqBLudzUaj2YVZiq+zEfqDTPbxX9fMXv2tf6/UzC02+rHrXpgN8WkU+AFksr8ye3298rfbrQqzt/eoFXc0cscXZgMgXseByT4yP9DTtshgr7ZXL9LN3D68PTw+YpMdfSBma87A6loDp6X+06+zjYvIcHleDewH0J+rqytfspnbf//yyy+//TJzx+g5fQBma4NGc7oy27Ztm+hfG3YW8xuVaP5pPMJ+EQUv5gd69avnrY9NFkHOZm/fXurXvd71685khcy2aslQ6HFaSwcYlgiDBuJU16GhMRhQNxG7VclLfB27yGBR4HrkeNUwr4jWgNgrX6Kp27dn//61h2Oei5/UWJR1VUyQBAPdQrmznlflbKIM09tpVnMMbfqNCeIUaAIAA5pwYUk0EvoB5GF5//qyDYgNXIGUN7j1n9/8+xlmFryOx+54MxbkBhU9kVjMCcA20YZ382xSyhntQNPWl82DyLWmtm6ISKXkwvakmtXKp/EY0+DyfgDlr8++H/jYqxBZ3uD2DRH75j+4rwDbLDLZzUYQwSp6Wodpv3Wz08hwDWWhPUUbMifzfhYDEdzcmVCiaXPSSG3m63i0cQOTZfaqaUF1a2eylNmIN2i1WrVW4Oj6CH+8vPjbF4TZlzr6fa/8bTTeCPysFLEYhm40U/2PDLGYAF0fqlBrTWRo3VG7THkfvrqbESbAHfO8Im4MzcB/ez30N8C1jdFOgP3TT9fXuwrD7qr1b8gXIKuNMCtNbEBJJT+xgf3PZWntL2yRD9j5l9h/QzOx4a/YDwQm+9u1oEECAwM1L74iBn4Se7j+dYSIHW++Hkxshk1IE4tgrmSCTankaRFrxU7JbutaeVLWzLYJo+Sak4RI29pgUpEnGH0r97gf9ATQYSqQbRs9zP+O198Rq+iZRXhlxAIjAiFP0OxmEhttSPiIdE+C14W51wkD5VbrijcgHqlfbXYi+ZcGQVIHn3BehIOX+wNj9vUzwhX68+PnHwk+/9EPsMsVkXvFYO38tX1GeHh7+4Z97PXP48BeP0UvR4gF9SgQibapR20C2EkhghAbawnouJ3IcwLtTHcwWPFvE9DN5Txu5/3Gnb5n1cD2xM21nnYmi4b4jNneD34YvLZhunW1zRpIPfrPz/7DwxfsE65/d7EjcKP2yojVvVp/Hw4aON7MFyvb3CMFmDfi6xFiYSva0GDQrSwmKNvaIzeJAALL4AnTwTDJCw0We+EN2EmJ1zgYd43RuOuVYxblAz6XbV1lD1AfUR779q1n7PwAymNHT/EvEWLNxDSw1R1CPos0bHFQD4kFMKkdq6nxrzbQU3PaLn9NqDfTkj1naEO+4SRvMN6NvEbujLPZ1122tZW0V4y/np8/Y3vtIXvFY9qYHyjJEIvRKHNvJbwTfieLWAyPf7vhJO2bbfYMgLnIGl4PllzDiY8MeYPRaFc05Jj906elAjleEbOfezjf+h01hkxWxKsksaXa0GY3KnYGMsSWSnMufUp012hQwLkNfZUYMPkb4TpoT5O+9YT8gItN1v1zn9mwVCBbqPrP339/+fK3i4kdb8T9kSMWuTwWxoyO6AtyxJYGLIMCWuLFmM8A9jCjZ+Q3xCcDu5n8LeRm3VEwMbPnDXbjLkl7xfjLf3hETwg1JvCvGNLElgYshtkiE5IktuSwhNf0Ei7FeDWk8rJdw6uAWailGXhrHMx4zWbuC+8NdgarUljd3O+IFdurCrGlrkk6AheCj2WJLQ2oO4Rr4RdaK86o5UYSAZwyeqnMu4wBM0pkA5P19yIYDl5qBevNw+MM5VpJHysQWxrS+zUFn0oTW5qzQYlwnLSgzBvpmUMUjmmkuYEQm3s8NYNVBZyffVXxAzs8oTCYyKsSsX06hrYFdiRPbIkOt4U+xWtTe4WKVcZq4riLB55DcF8e/Qefs9n//qF2qRJmdpxcllIhtrQgJqsL4rkCsU3SDhTYl0M9TnJCmgi5WY8RFsTN7v03/4drnDehf3p7pVrOLJW+ppT7lIitknsWOVkFYi2btCPIi6bU4dhpxbRc2KDg5Qfi2P+F8Kqe8lNMhRKxLUIIWMY/VCC2RusK8THCDbmGpotCZEHYBNJY/5nUuYufaFUitrQKCTFW8c8UiKVWaWixl4lcQgNlmR4ditFOzb3dTdAeYQJbjdg1TL5pFWKps4ZRYhvUwwoDW3EYBcTi+suzcj4gAzVih5TYuNtWIXZOiDWj7WjEYKHkgOtgjO+x6Pg4fqCkSiwJ50Y9Hn6J39Ql2qGZrB1pxyMGC4CirEEdf23fcMXwOLwqEkt8I0gmVspi6VBDj7TTIRmunp3o58Zj4GOPJBBSI3ZpFONj6QMC+67AIgZrAJnu5MXDsfxASZVYkJwmKRFLHlA0uxgSFyE/j5sLD0fjVY3YQVpir0CsQ/iLVmFo4UtXFq4fhjReB43hXR2abROU74YNS9HnKxFLY45IYKBAbIMSux/6U0dkp0V3sbJ1CINXFAAIdRtOqzy38+EOSdUMJWJXBRVh7kg7kYIsjWlJE5YnQq1ZjksWADTrcxYSVjv1QTuprKlCLMuFRCmVPLHUMKNVwTpx4cbRc60U1JpJEjygM9/f2fXVLIDYfnryLk9smXQ7MsfTp55AXAA/Dbx6ijgIUA1PgcQuWZ1b5FikiZ3Sjkdc9Q15I5KmbE6A1pSblBTBCI22OGLvMmZUZIllvBr2fuxvkk/aJ8oJ4nDKe+aKVb0YOIzR/zSD2y+KWKvMJBHi+RI5YgcT1nM94lHuyLBBJhU+Cga8zhBAezVtejdWt1oZrutME6Lf1Yoi1uFlBQmjTRli+01OaAWMSM1+FfresyVbFqcERIGqOeDGhTVrYZKYpi+LIdZa8DIqKKjFYmQTaw01/kWLircckhScaNgVw4DjFWrxVL01J5oI9K5JEyvMHFv9m8oa7qniDC3BAaYSW+tWpsZ+bhibIKDT4vJSgkLRqtPbTBI11YahQsf0wlF5JrFw2oxgOF2uYEyAacCklshw1JhHGlqsJyAu5NRjCjCqWxANP04AFlWhkVhkJ3obYiKZxGpR3TIKhALtMbQTJ6TpOD/ekEB6bq5jpXKPdMU8S1LA5i7gJGXCtrbcyxuyiZWCnqREL6lJ5YEpGGKwCoL6RHR+ONRPwUnquK+15NW4hRALRXRQKBCrl0WvGhWXa+cglk7DgXLWeJrLPAsg1oD2NFWXIkss0M25sOukdpZ9Z0fAgMhvDLHsiYfDubZ8xAJDN7VFhtxHilgDl4gSeCMDL7AqaPWtCqhMJFFoz8FjpOUgVtdtbTnsZt5sJrEA6nZ9mtxvarGCCbVjY0Dn46UGJ2tWNsnOCvQ9UJbqFc+S8nms+i+Cadvl6Ty1JeZjT08sfVugVEZCHYdEHjts7GFCkydZwR+VDXmNOLxudjM0KwCnD15kNC07OUw9h/LIixajgVAXL4DKZKIQtI5unzyPJXebINhN/sEBtQKq/jXTF1VT5Ca2Szp7ZHGRAHM6/pT9BTFxdWIdslYTSObruYkd0OKRd2gTh4JMxycvaI2CpL0HVLdYWJN7jLmJ7ddJ2fDk1S0Si9rSvyB+65CyYTlV0B7/el5iWT321FNeRC8hkv0mwAGHE0t9npG2hJAiP7F3VNF1cBOHgUy2iZT7CWiVcxS6WU4h827mJ5YuTUguoR0HbKW2/G8mOYilS+ak0ub8xNKCrGjtyDFBnqh87KKv12FTM3TaVMbr5Se2RmJIwjLoo4EocFQq7NM8xFJpimZna37yE0vDJTjx2IvkTiouaJiL2Codf2VXnAoglr4hcqLSwnCIxeYjlgvUmfGrAGIHZ9IYHeJjF/mIZQuKMyeiCiCWhFrNEIqYjoZDsoJ8PpbTWGcGlCKIZdHyBEsQGEjhWkXQIDv9nURsi+4bllVaL4LYARWKxhaAHROW+sgr1wAhgEfHXxlTUUUQy/n0Yy/z4kHzPFv6J8RH5pAYdejMQPrrWQixdCWtZCm/IJAivXzBspGfWLpESCyLjXYup1SQVn6Eu3gcCyTfkq/Hrg8vG1LQkjdMdUHFEEs9j8yYpDBUVWcQ6LqfPMT2qeoqdXO3YohlngfUTxe/akSLJZsXNIsgtlShsTptYrogYpnn0U8ok6Wrr+VcO924IafwmC5DSovVBRHLbbUjVa2MonJQZcwi00Jyrn0hrytIJbYrE7+KIrbG9J7qe8KUHNOeHuJCaJ4n49q7CkqY9LIHLXmn7EdYFLGlG7aLka6qlG2tDA2WD9DXWlS7le0M6ORcfmIdFr8S37TCiGWRQQOqGuQ1/qnRPmBAzGxnlSXEmaioDTMKdWwPsnpSqbQ4YksdtlMcVEq6iH9O3QZdDIeqqmAn3ZfccbzmX46kZcavAol12JJLYCrsETVkGYWsfoeBU3SnHUbncOupiiCW7dqU9HYWSCy/QaVmT2U1cgu2FVrSCpQ0cGsQtMT35CZcOAMPVsJEQZWLSZPhRRKL4i63rqwuNZ/gcIsDDhMpMaU2MBdCd1BbhP3Sh3nLhhSs5J0QvwoltlTldjw2zEX2HFiVW4uWvbG6EH1OAw9hJUZtf26HhgpWBa6lpSVvI7qicIdiieU3Aka32c7Qk1sdbiflgwYWGIM6t25S14a8nLffneo0gqN0Po+uIAJa8hbvjVcwsXt3iReWrJMPl7L2lmzbh0u/HH7dBpb13w2rGJVFp25yjqJb6LJ6Lz1+FU1syensbWYPzfKiKohj1nzFb9cvccBCGtZ7Z1oYQA9Xf3PnZACIPXiBxLIETrjtYOHE4vRpb6cLAE17MvesfqvWKrVaNcfy5nemubcdBoA5Z84b++dVxAHLgVcqkliLlUfybbYjjZvYbhd4hYita+VVGZhtW4+yoK9yT+8O7tK2ggDtMPsrklhWeAIgniceg1h8TIDIgPDRa4K7N9rDImq43WXCYXcoP6FHBxRKbIsN++K10qMQizyt1DFpu7ueFLW62VqA+FUBtJcs0yyU2NRNSI9ELI75MtSi2FakRrFWnZo2iln4yEcA8GlX7VWTJzGb2N3ZUDIL8kq4sEMOpapHPyqHnxxBNTyY2maK38NPs730Cr+sVVksy/h8p/JqPaxGkvdMYuHubCjJYNqlh0rFFgqstN0HhvINSKDmLWF8j7HQBUC9nrhhW360xG471PUnnycQHgQm6/RbBLFja8mRYsdaVuh4i9X+dkIBpzZcNq3TL74lShjVAwX+mWg53nBdNtvt8LhIczlsyK1HLRzhLIIoPXrH6DsDyxr0z7BInMLZbT9yjnW/HxthsS8ewy/Ih1D5acjrEy+QQqgsOKnC7LtAOIFw6oVTHx79cMB6pi3CPi7IGuX2OTOTj4jQE8itMv7uIZ/rE0HSuba3fF9w5CchyVzKaVdNvVM4ZSi7mT05MO7Ua37fJbCoAMgtTaQ7xZ1xL/F3g1ow8Q2kqCJqw0voykYrFDgKtwmNgO4C3z75bkvvDq0OO0Kgk54c9KnG9KynNbwXMKWhBvVmSimwCqk48Cy7sb47MAkoljc2E6y2u2YSkjOfh/NusOBkGkDXp/HtR51Gh5subntn6OS7RGNPqgRNez2vOv1aC8/m9Z1uc9LmvqAkNP/eYRn78gWomzaoT5bLyUqz944skEzLLgjRjx/gg/UaWLCx/79QeZnU947uKl0YsksHTOlVERdQeKusY6fsySUdOAjexNYFR2sEpBq63bnQejCceceIHeECDKjrqyNKmb4PODfDddm2TbZ1e3258C6sFoJWzfK8ynxeaXhV66yymwsuuOCCCy644IJ/Lv4Pm/FlKQ7uBHUAAAAASUVORK5CYII=;" vertex="1" parent="1">
          <mxGeometry x="320" y="125.99999999999999" width="44" height="18.8" as="geometry" />
        </mxCell>
        <mxCell id="UOxeesQy1HJUlwh9xV77-21" value="" style="shape=image;verticalLabelPosition=bottom;labelBackgroundColor=default;verticalAlign=top;aspect=fixed;imageAspect=0;image=data:image/png,iVBORw0KGgoAAAANSUhEUgAAAVgAAACTCAMAAAD86vGxAAAA4VBMVEX///8kS1ogSVgOQFEzWGaksbYhSVkAPU8WRFS/yMvS2Nr19/gAOkwAr6wtUmGstbqQoKf2+fkANUhLZnHr7u/I0NMkRlbv8fLd4uSJmqFry8p30M8fQlN/0dHDzM9GZHC1wMRsgoszwb9cxsXn9vaYp615jZVbdX9TbXg9XWpheIKO19ZQw8Fbzcuk3d1y09EFuLQuZG+c3dsxyMZKwMA5sLAQoaJUr7ElcXkiPE84eoIkWGWz4uI5lps+h41DfoZqwMFSkJZEd4Ha6utT0M0eXWiE3Np3urw+o6YNVmIclJWS3PjqAAAR50lEQVR4nO1da2PiNhbFMtjCODzNy4RgTCA8kglNMp1tM9tO27Tb3f//g1Yy1gNbtiVsoMlwZubLALJ8fH3v1dWRVCpdcMEFF1xwwQUXXHA2bNxz9+BjYvzgj87dh4+IzYP/sH08dy8+Hp5813/w/QuzBWMzm90jk/WfH87dk4+FJ/fefcEm++xfmC0Qn15G9+79/b3/vH3eXpgtDBt3NkMmiwz2bfvsXyJYUXhyZ6P7R+xiP3/+/CP688Xq3gzO3av3j6f70QyZLApe//rpegezXXZUm7kd3R6jd+8XTzPXDUzW/7mnhei9HsDr6MIsj0/ubLzzBD9fE16N+pVqBLudzUaj2YVZiq+zEfqDTPbxX9fMXv2tf6/UzC02+rHrXpgN8WkU+AFksr8ye3298rfbrQqzt/eoFXc0cscXZgMgXseByT4yP9DTtshgr7ZXL9LN3D68PTw+YpMdfSBma87A6loDp6X+06+zjYvIcHleDewH0J+rqytfspnbf//yyy+//TJzx+g5fQBma4NGc7oy27Ztm+hfG3YW8xuVaP5pPMJ+EQUv5gd69avnrY9NFkHOZm/fXurXvd71685khcy2aslQ6HFaSwcYlgiDBuJU16GhMRhQNxG7VclLfB27yGBR4HrkeNUwr4jWgNgrX6Kp27dn//61h2Oei5/UWJR1VUyQBAPdQrmznlflbKIM09tpVnMMbfqNCeIUaAIAA5pwYUk0EvoB5GF5//qyDYgNXIGUN7j1n9/8+xlmFryOx+54MxbkBhU9kVjMCcA20YZ382xSyhntQNPWl82DyLWmtm6ISKXkwvakmtXKp/EY0+DyfgDlr8++H/jYqxBZ3uD2DRH75j+4rwDbLDLZzUYQwSp6Wodpv3Wz08hwDWWhPUUbMifzfhYDEdzcmVCiaXPSSG3m63i0cQOTZfaqaUF1a2eylNmIN2i1WrVW4Oj6CH+8vPjbF4TZlzr6fa/8bTTeCPysFLEYhm40U/2PDLGYAF0fqlBrTWRo3VG7THkfvrqbESbAHfO8Im4MzcB/ez30N8C1jdFOgP3TT9fXuwrD7qr1b8gXIKuNMCtNbEBJJT+xgf3PZWntL2yRD9j5l9h/QzOx4a/YDwQm+9u1oEECAwM1L74iBn4Se7j+dYSIHW++Hkxshk1IE4tgrmSCTankaRFrxU7JbutaeVLWzLYJo+Sak4RI29pgUpEnGH0r97gf9ATQYSqQbRs9zP+O198Rq+iZRXhlxAIjAiFP0OxmEhttSPiIdE+C14W51wkD5VbrijcgHqlfbXYi+ZcGQVIHn3BehIOX+wNj9vUzwhX68+PnHwk+/9EPsMsVkXvFYO38tX1GeHh7+4Z97PXP48BeP0UvR4gF9SgQibapR20C2EkhghAbawnouJ3IcwLtTHcwWPFvE9DN5Txu5/3Gnb5n1cD2xM21nnYmi4b4jNneD34YvLZhunW1zRpIPfrPz/7DwxfsE65/d7EjcKP2yojVvVp/Hw4aON7MFyvb3CMFmDfi6xFiYSva0GDQrSwmKNvaIzeJAALL4AnTwTDJCw0We+EN2EmJ1zgYd43RuOuVYxblAz6XbV1lD1AfUR779q1n7PwAymNHT/EvEWLNxDSw1R1CPos0bHFQD4kFMKkdq6nxrzbQU3PaLn9NqDfTkj1naEO+4SRvMN6NvEbujLPZ1122tZW0V4y/np8/Y3vtIXvFY9qYHyjJEIvRKHNvJbwTfieLWAyPf7vhJO2bbfYMgLnIGl4PllzDiY8MeYPRaFc05Jj906elAjleEbOfezjf+h01hkxWxKsksaXa0GY3KnYGMsSWSnMufUp012hQwLkNfZUYMPkb4TpoT5O+9YT8gItN1v1zn9mwVCBbqPrP339/+fK3i4kdb8T9kSMWuTwWxoyO6AtyxJYGLIMCWuLFmM8A9jCjZ+Q3xCcDu5n8LeRm3VEwMbPnDXbjLkl7xfjLf3hETwg1JvCvGNLElgYshtkiE5IktuSwhNf0Ei7FeDWk8rJdw6uAWailGXhrHMx4zWbuC+8NdgarUljd3O+IFdurCrGlrkk6AheCj2WJLQ2oO4Rr4RdaK86o5UYSAZwyeqnMu4wBM0pkA5P19yIYDl5qBevNw+MM5VpJHysQWxrS+zUFn0oTW5qzQYlwnLSgzBvpmUMUjmmkuYEQm3s8NYNVBZyffVXxAzs8oTCYyKsSsX06hrYFdiRPbIkOt4U+xWtTe4WKVcZq4riLB55DcF8e/Qefs9n//qF2qRJmdpxcllIhtrQgJqsL4rkCsU3SDhTYl0M9TnJCmgi5WY8RFsTN7v03/4drnDehf3p7pVrOLJW+ppT7lIitknsWOVkFYi2btCPIi6bU4dhpxbRc2KDg5Qfi2P+F8Kqe8lNMhRKxLUIIWMY/VCC2RusK8THCDbmGpotCZEHYBNJY/5nUuYufaFUitrQKCTFW8c8UiKVWaWixl4lcQgNlmR4ditFOzb3dTdAeYQJbjdg1TL5pFWKps4ZRYhvUwwoDW3EYBcTi+suzcj4gAzVih5TYuNtWIXZOiDWj7WjEYKHkgOtgjO+x6Pg4fqCkSiwJ50Y9Hn6J39Ql2qGZrB1pxyMGC4CirEEdf23fcMXwOLwqEkt8I0gmVspi6VBDj7TTIRmunp3o58Zj4GOPJBBSI3ZpFONj6QMC+67AIgZrAJnu5MXDsfxASZVYkJwmKRFLHlA0uxgSFyE/j5sLD0fjVY3YQVpir0CsQ/iLVmFo4UtXFq4fhjReB43hXR2abROU74YNS9HnKxFLY45IYKBAbIMSux/6U0dkp0V3sbJ1CINXFAAIdRtOqzy38+EOSdUMJWJXBRVh7kg7kYIsjWlJE5YnQq1ZjksWADTrcxYSVjv1QTuprKlCLMuFRCmVPLHUMKNVwTpx4cbRc60U1JpJEjygM9/f2fXVLIDYfnryLk9smXQ7MsfTp55AXAA/Dbx6ijgIUA1PgcQuWZ1b5FikiZ3Sjkdc9Q15I5KmbE6A1pSblBTBCI22OGLvMmZUZIllvBr2fuxvkk/aJ8oJ4nDKe+aKVb0YOIzR/zSD2y+KWKvMJBHi+RI5YgcT1nM94lHuyLBBJhU+Cga8zhBAezVtejdWt1oZrutME6Lf1Yoi1uFlBQmjTRli+01OaAWMSM1+FfresyVbFqcERIGqOeDGhTVrYZKYpi+LIdZa8DIqKKjFYmQTaw01/kWLircckhScaNgVw4DjFWrxVL01J5oI9K5JEyvMHFv9m8oa7qniDC3BAaYSW+tWpsZ+bhibIKDT4vJSgkLRqtPbTBI11YahQsf0wlF5JrFw2oxgOF2uYEyAacCklshw1JhHGlqsJyAu5NRjCjCqWxANP04AFlWhkVhkJ3obYiKZxGpR3TIKhALtMbQTJ6TpOD/ekEB6bq5jpXKPdMU8S1LA5i7gJGXCtrbcyxuyiZWCnqREL6lJ5YEpGGKwCoL6RHR+ONRPwUnquK+15NW4hRALRXRQKBCrl0WvGhWXa+cglk7DgXLWeJrLPAsg1oD2NFWXIkss0M25sOukdpZ9Z0fAgMhvDLHsiYfDubZ8xAJDN7VFhtxHilgDl4gSeCMDL7AqaPWtCqhMJFFoz8FjpOUgVtdtbTnsZt5sJrEA6nZ9mtxvarGCCbVjY0Dn46UGJ2tWNsnOCvQ9UJbqFc+S8nms+i+Cadvl6Ty1JeZjT08sfVugVEZCHYdEHjts7GFCkydZwR+VDXmNOLxudjM0KwCnD15kNC07OUw9h/LIixajgVAXL4DKZKIQtI5unzyPJXebINhN/sEBtQKq/jXTF1VT5Ca2Szp7ZHGRAHM6/pT9BTFxdWIdslYTSObruYkd0OKRd2gTh4JMxycvaI2CpL0HVLdYWJN7jLmJ7ddJ2fDk1S0Si9rSvyB+65CyYTlV0B7/el5iWT321FNeRC8hkv0mwAGHE0t9npG2hJAiP7F3VNF1cBOHgUy2iZT7CWiVcxS6WU4h827mJ5YuTUguoR0HbKW2/G8mOYilS+ak0ub8xNKCrGjtyDFBnqh87KKv12FTM3TaVMbr5Se2RmJIwjLoo4EocFQq7NM8xFJpimZna37yE0vDJTjx2IvkTiouaJiL2Codf2VXnAoglr4hcqLSwnCIxeYjlgvUmfGrAGIHZ9IYHeJjF/mIZQuKMyeiCiCWhFrNEIqYjoZDsoJ8PpbTWGcGlCKIZdHyBEsQGEjhWkXQIDv9nURsi+4bllVaL4LYARWKxhaAHROW+sgr1wAhgEfHXxlTUUUQy/n0Yy/z4kHzPFv6J8RH5pAYdejMQPrrWQixdCWtZCm/IJAivXzBspGfWLpESCyLjXYup1SQVn6Eu3gcCyTfkq/Hrg8vG1LQkjdMdUHFEEs9j8yYpDBUVWcQ6LqfPMT2qeoqdXO3YohlngfUTxe/akSLJZsXNIsgtlShsTptYrogYpnn0U8ok6Wrr+VcO924IafwmC5DSovVBRHLbbUjVa2MonJQZcwi00Jyrn0hrytIJbYrE7+KIrbG9J7qe8KUHNOeHuJCaJ4n49q7CkqY9LIHLXmn7EdYFLGlG7aLka6qlG2tDA2WD9DXWlS7le0M6ORcfmIdFr8S37TCiGWRQQOqGuQ1/qnRPmBAzGxnlSXEmaioDTMKdWwPsnpSqbQ4YksdtlMcVEq6iH9O3QZdDIeqqmAn3ZfccbzmX46kZcavAol12JJLYCrsETVkGYWsfoeBU3SnHUbncOupiiCW7dqU9HYWSCy/QaVmT2U1cgu2FVrSCpQ0cGsQtMT35CZcOAMPVsJEQZWLSZPhRRKL4i63rqwuNZ/gcIsDDhMpMaU2MBdCd1BbhP3Sh3nLhhSs5J0QvwoltlTldjw2zEX2HFiVW4uWvbG6EH1OAw9hJUZtf26HhgpWBa6lpSVvI7qicIdiieU3Aka32c7Qk1sdbiflgwYWGIM6t25S14a8nLffneo0gqN0Po+uIAJa8hbvjVcwsXt3iReWrJMPl7L2lmzbh0u/HH7dBpb13w2rGJVFp25yjqJb6LJ6Lz1+FU1syensbWYPzfKiKohj1nzFb9cvccBCGtZ7Z1oYQA9Xf3PnZACIPXiBxLIETrjtYOHE4vRpb6cLAE17MvesfqvWKrVaNcfy5nemubcdBoA5Z84b++dVxAHLgVcqkliLlUfybbYjjZvYbhd4hYita+VVGZhtW4+yoK9yT+8O7tK2ggDtMPsrklhWeAIgniceg1h8TIDIgPDRa4K7N9rDImq43WXCYXcoP6FHBxRKbIsN++K10qMQizyt1DFpu7ueFLW62VqA+FUBtJcs0yyU2NRNSI9ELI75MtSi2FakRrFWnZo2iln4yEcA8GlX7VWTJzGb2N3ZUDIL8kq4sEMOpapHPyqHnxxBNTyY2maK38NPs730Cr+sVVksy/h8p/JqPaxGkvdMYuHubCjJYNqlh0rFFgqstN0HhvINSKDmLWF8j7HQBUC9nrhhW360xG471PUnnycQHgQm6/RbBLFja8mRYsdaVuh4i9X+dkIBpzZcNq3TL74lShjVAwX+mWg53nBdNtvt8LhIczlsyK1HLRzhLIIoPXrH6DsDyxr0z7BInMLZbT9yjnW/HxthsS8ewy/Ih1D5acjrEy+QQqgsOKnC7LtAOIFw6oVTHx79cMB6pi3CPi7IGuX2OTOTj4jQE8itMv7uIZ/rE0HSuba3fF9w5CchyVzKaVdNvVM4ZSi7mT05MO7Ua37fJbCoAMgtTaQ7xZ1xL/F3g1ow8Q2kqCJqw0voykYrFDgKtwmNgO4C3z75bkvvDq0OO0Kgk54c9KnG9KynNbwXMKWhBvVmSimwCqk48Cy7sb47MAkoljc2E6y2u2YSkjOfh/NusOBkGkDXp/HtR51Gh5subntn6OS7RGNPqgRNez2vOv1aC8/m9Z1uc9LmvqAkNP/eYRn78gWomzaoT5bLyUqz944skEzLLgjRjx/gg/UaWLCx/79QeZnU947uKl0YsksHTOlVERdQeKusY6fsySUdOAjexNYFR2sEpBq63bnQejCceceIHeECDKjrqyNKmb4PODfDddm2TbZ1e3258C6sFoJWzfK8ynxeaXhV66yymwsuuOCCCy644IJ/Lv4Pm/FlKQ7uBHUAAAAASUVORK5CYII=;" vertex="1" parent="1">
          <mxGeometry x="506" y="126" width="44" height="18.8" as="geometry" />
        </mxCell>
        <mxCell id="UOxeesQy1HJUlwh9xV77-23" value="Client" style="ellipse;whiteSpace=wrap;html=1;fillColor=#dae8fc;strokeColor=#6c8ebf;" vertex="1" parent="1">
          <mxGeometry x="120" y="680" width="120" height="80" as="geometry" />
        </mxCell>
        <mxCell id="UOxeesQy1HJUlwh9xV77-25" value="Client" style="ellipse;whiteSpace=wrap;html=1;fillColor=#dae8fc;strokeColor=#6c8ebf;" vertex="1" parent="1">
          <mxGeometry x="630" y="680" width="120" height="80" as="geometry" />
        </mxCell>
      </root>
    </mxGraphModel>
  </diagram>
</mxfile>
